<svg width="18" height="18" viewBox="0 0 18 18" fill="none" xmlns="http://www.w3.org/2000/svg">
<path d="M10.6875 3H7.3125C4.92601 3 3.73277 3 2.99139 3.75315C2.25 4.50631 2.25 5.71849 2.25 8.14286V9.85714C2.25 12.2815 2.25 13.4937 2.99139 14.2468C3.73277 15 4.92601 15 7.3125 15H10.6875C13.074 15 14.2672 15 15.0086 14.2468C15.75 13.4937 15.75 12.2815 15.75 9.85714V8.14286C15.75 5.71849 15.75 4.50631 15.0086 3.75315C14.2672 3 13.074 3 10.6875 3Z" stroke="#BAB300" stroke-width="2"/>
<path d="M5.25 6H7.5" stroke="#BAB300" stroke-width="2" stroke-linecap="round"/>
<path d="M14.25 12H12.75C12.2841 12 12.0511 12 11.8673 11.9239C11.6223 11.8224 11.4276 11.6277 11.3261 11.3827C11.25 11.1989 11.25 10.9659 11.25 10.5C11.25 10.0341 11.25 9.80109 11.3261 9.61732C11.4276 9.37229 11.6223 9.17761 11.8673 9.07612C12.0511 9 12.2841 9 12.75 9H14.25C14.7159 9 14.9489 9 15.1327 9.07612C15.3777 9.17761 15.5724 9.37229 15.6739 9.61732C15.75 9.80109 15.75 10.0341 15.75 10.5C15.75 10.9659 15.75 11.1989 15.6739 11.3827C15.5724 11.6277 15.3777 11.8224 15.1327 11.9239C14.9489 12 14.7159 12 14.25 12Z" stroke="#BAB300" stroke-width="2"/>
</svg>
