<svg width="16" height="16" viewBox="0 0 16 16" fill="none" xmlns="http://www.w3.org/2000/svg">
<path fill-rule="evenodd" clip-rule="evenodd" d="M7.65945 0C6.30582 0 5.1963 0.867605 4.42515 1.67457C3.62401 2.51292 2.98548 3.50271 2.5949 4.11553C2.04154 4.98374 1.12283 6.6135 0.542949 8.2889C0.253654 9.12472 0.0303068 10.0234 0.0028282 10.872C-0.0244797 11.7154 0.139769 12.6318 0.766999 13.3483C1.4413 14.1185 2.51122 14.5962 3.61315 14.889C4.74591 15.1899 6.05816 15.3334 7.37164 15.3334C8.68698 15.3334 10.0385 15.1895 11.2535 14.8942C12.4524 14.6028 13.5975 14.145 14.4317 13.4644C15.236 12.8081 15.3708 11.7884 15.3255 10.9628C15.2781 10.1002 15.0222 9.14892 14.711 8.2701C14.086 6.50487 13.1445 4.77534 12.724 4.11553C12.3345 3.50444 11.6765 2.52111 10.8643 1.68221C10.0944 0.887053 8.97689 0 7.65945 0ZM4.28147 5.19046C4.67449 4.57382 5.22052 3.73711 5.87109 3.05633C6.55165 2.34416 7.16096 2 7.65945 2C8.10661 2 8.71846 2.3412 9.42742 3.07341C10.094 3.76189 10.6643 4.60506 11.0374 5.19046C11.3884 5.74105 12.2582 7.33469 12.8257 8.9376C13.1108 9.74284 13.2964 10.4869 13.3285 11.0724C13.3627 11.6948 13.2149 11.8759 13.1673 11.9148C12.6941 12.3009 11.9506 12.6428 11.0001 12.8951V8.66672C11.0001 8.11444 10.5523 7.66672 10.0001 7.66672H5.33333C4.78105 7.66672 4.33333 8.11444 4.33333 8.66672V13.0082C4.26339 12.9914 4.19447 12.974 4.12665 12.956C3.16591 12.7008 2.55692 12.3566 2.27183 12.0309C2.10733 11.843 1.98321 11.5103 2.00178 10.9368C2.02018 10.3685 2.17696 9.68263 2.43294 8.94306C2.9436 7.46767 3.77601 5.98353 4.28147 5.19046Z" fill="#06CF8C"/>
</svg>
