<svg width="20" height="20" viewBox="0 0 20 20" fill="none" xmlns="http://www.w3.org/2000/svg">
<path d="M4.16667 10.633C4.16667 9.50155 4.16667 8.93582 4.39539 8.43854C4.62411 7.94126 5.05364 7.57308 5.91271 6.83673L6.74605 6.12245C8.29881 4.79151 9.07519 4.12604 10 4.12604C10.9248 4.12604 11.7012 4.79151 13.254 6.12245L14.0873 6.83673C14.9464 7.57308 15.3759 7.94126 15.6046 8.43854C15.8333 8.93582 15.8333 9.50155 15.8333 10.633V14.1667C15.8333 15.738 15.8333 16.5237 15.3452 17.0119C14.857 17.5 14.0714 17.5 12.5 17.5H7.5C5.92866 17.5 5.14298 17.5 4.65483 17.0119C4.16667 16.5237 4.16667 15.738 4.16667 14.1667V10.633Z" stroke="#CF5B07" stroke-width="2"/>
<path d="M12.0833 17.5V13.5C12.0833 12.9477 11.6356 12.5 11.0833 12.5H8.91667C8.36439 12.5 7.91667 12.9477 7.91667 13.5V17.5" stroke="#CF5B07" stroke-width="2" stroke-linecap="round" stroke-linejoin="round"/>
</svg>
