<svg width="29" height="28" viewBox="0 0 29 28" fill="none" xmlns="http://www.w3.org/2000/svg">
<path fill-rule="evenodd" clip-rule="evenodd" d="M4.21079 7.58579C3.625 8.17157 3.625 9.11438 3.625 11V17C3.625 18.8856 3.625 19.8284 4.21079 20.4142C4.79657 21 5.73938 21 7.625 21H21.375C23.2606 21 24.2034 21 24.7892 20.4142C25.375 19.8284 25.375 18.8856 25.375 17V11C25.375 9.11438 25.375 8.17157 24.7892 7.58579C24.2034 7 23.2606 7 21.375 7H7.625C5.73938 7 4.79657 7 4.21079 7.58579ZM14.5 17.5C16.502 17.5 18.125 15.933 18.125 14C18.125 12.067 16.502 10.5 14.5 10.5C12.498 10.5 10.875 12.067 10.875 14C10.875 15.933 12.498 17.5 14.5 17.5Z" fill="#FF3F3F" fill-opacity="0.24"/>
<rect x="3.625" y="7" width="21.75" height="14" rx="2" stroke="#FF3F3F" stroke-width="1.2"/>
<path d="M7.25 10.5H9.66667" stroke="#FF3F3F" stroke-width="1.2" stroke-linecap="round"/>
<path d="M19.3333 17.5H21.75" stroke="#FF3F3F" stroke-width="1.2" stroke-linecap="round"/>
<path d="M17.525 14C17.525 15.582 16.1907 16.9 14.5 16.9C12.8093 16.9 11.475 15.582 11.475 14C11.475 12.418 12.8093 11.1 14.5 11.1C16.1907 11.1 17.525 12.418 17.525 14Z" stroke="#FF3F3F" stroke-width="1.2"/>
</svg>
