<svg width="17" height="14" viewBox="0 0 17 14" fill="none" xmlns="http://www.w3.org/2000/svg">
<path fill-rule="evenodd" clip-rule="evenodd" d="M1 0C0.447715 0 0 0.447715 0 1C0 1.55228 0.447715 2 1 2H2.85707L4.75025 9.95132C4.10334 10.213 3.64695 10.8471 3.64695 11.5878C3.64695 12.5624 4.437 13.3525 5.41157 13.3525C6.38615 13.3525 7.1762 12.5624 7.1762 11.5878C7.1762 11.4773 7.16603 11.3692 7.14659 11.2643H13.382C13.3626 11.3692 13.3524 11.4773 13.3524 11.5878C13.3524 12.5624 14.1425 13.3525 15.117 13.3525C16.0916 13.3525 16.8816 12.5624 16.8816 11.5878C16.8816 10.9805 16.5748 10.4448 16.1077 10.1273C16.0409 9.63982 15.6228 9.26426 15.117 9.26426H6.64257L4.61974 0.768379C4.51248 0.317911 4.10999 0 3.64693 0H1ZM7.56681 1.88249C6.91868 1.88249 6.44178 2.48956 6.59524 3.11925L7.61296 7.29543C7.72213 7.7434 8.12345 8.05866 8.58453 8.05866H14.5909C15.052 8.05866 15.4533 7.7434 15.5624 7.29543L16.5802 3.11925C16.7336 2.48956 16.2567 1.88249 15.6086 1.88249H7.56681ZM5.41157 11.3525C5.28158 11.3525 5.1762 11.4578 5.1762 11.5878C5.1762 11.7178 5.28158 11.8232 5.41157 11.8232C5.54157 11.8232 5.64695 11.7178 5.64695 11.5878C5.64695 11.4578 5.54157 11.3525 5.41157 11.3525ZM14.8816 11.5878C14.8816 11.4578 14.987 11.3525 15.117 11.3525C15.247 11.3525 15.3524 11.4578 15.3524 11.5878C15.3524 11.7178 15.247 11.8232 15.117 11.8232C14.987 11.8232 14.8816 11.7178 14.8816 11.5878Z" fill="#AC0BD5"/>
</svg>
