<svg width="351" height="113" viewBox="0 0 351 113" fill="none" xmlns="http://www.w3.org/2000/svg">
<path d="M29.6562 83.8019C24.2056 83.7991 19.278 82.8632 14.8737 80.9943C10.544 79.1254 7.11068 76.4356 4.57382 72.9249C2.03696 69.4143 0.732428 65.2696 0.660224 60.4909L17.4602 60.4996C17.6826 63.7104 18.8013 66.2496 20.8163 68.1173C22.906 69.9851 25.7429 70.9199 29.3269 70.9217C32.9855 70.9236 35.8606 70.0664 37.9522 68.3501C40.0438 66.5592 41.0903 64.2451 41.0918 61.4078C41.093 59.0931 40.3846 57.1887 38.9667 55.6947C37.5488 54.2006 35.7574 53.0423 33.5925 52.2199C31.5023 51.3228 28.5908 50.3507 24.858 49.3034C19.7814 47.8074 15.6382 46.3493 12.4282 44.929C9.29301 43.434 6.56882 41.23 4.25565 38.3168C2.01719 35.329 0.899228 31.371 0.901767 26.4431C0.904152 21.8137 2.06356 17.7823 4.38 14.3488C6.69644 10.9154 9.94578 8.3037 14.128 6.51386C18.3103 4.64935 23.0895 3.71848 28.4655 3.72125C36.5295 3.7254 43.0618 5.70744 48.0624 9.66734C53.1378 13.5526 55.9349 19.0047 56.454 26.0237L39.206 26.0148C39.058 23.3267 37.9018 21.1234 35.7374 19.405C33.6477 17.6119 30.8481 16.7145 27.3388 16.7127C24.2775 16.7111 21.813 17.4938 19.9456 19.0609C18.1528 20.6279 17.2556 22.9048 17.2541 25.8915C17.253 27.9821 17.9241 29.7372 19.2673 31.1565C20.6853 32.5012 22.4021 33.6221 24.4176 34.5192C26.5079 35.3416 29.4194 36.3137 33.1521 37.4357C38.2287 38.9316 42.3719 40.4271 45.5818 41.9221C48.7917 43.4171 51.5532 45.6585 53.8663 48.6463C56.1795 51.6342 57.3348 55.5548 57.3323 60.4081C57.3301 64.5895 56.2455 68.4716 54.0783 72.0545C51.9111 75.6373 48.7363 78.5104 44.5538 80.6735C40.3714 82.7621 35.4056 83.8048 29.6562 83.8019ZM86.622 29.9592C88.6394 27.1229 91.4033 24.7723 94.9136 22.9075C98.4986 20.968 102.568 19.9994 107.123 20.0018C112.424 20.0045 117.202 21.3136 121.457 23.9292C125.786 26.5447 129.182 30.2798 131.643 35.1344C134.18 39.9144 135.446 45.4777 135.443 51.8244C135.439 58.171 134.167 63.8077 131.626 68.7344C129.159 73.5865 125.76 77.3554 121.428 80.0412C117.171 82.727 112.391 84.0685 107.09 84.0658C102.535 84.0634 98.5039 83.128 94.9955 81.2595C91.5618 79.3911 88.763 77.0377 86.5992 74.1992L86.5794 112.615L70.8994 112.607L70.9466 20.9911L86.6266 20.9992L86.622 29.9592ZM119.427 51.8161C119.429 48.0828 118.646 44.8717 117.08 42.1829C115.588 39.4195 113.573 37.3278 111.035 35.9078C108.572 34.4879 105.884 33.7771 102.972 33.7756C100.135 33.7742 97.4463 34.5195 94.9069 36.0115C92.4421 37.4289 90.425 39.5185 88.8556 42.2804C87.3609 45.0423 86.6125 48.2899 86.6106 52.0232C86.6087 55.7565 87.3537 59.0049 88.8456 61.7684C90.4122 64.5318 92.4271 66.6609 94.8903 68.1555C97.4282 69.5755 100.116 70.2862 102.953 70.2876C105.865 70.2891 108.554 69.5439 111.018 68.0518C113.558 66.5598 115.575 64.4328 117.07 61.6709C118.639 58.9091 119.425 55.6241 119.427 51.8161ZM204.518 50.74C204.516 52.98 204.366 54.9959 204.066 56.7877L158.706 56.7644C159.077 61.2446 160.644 64.7547 163.405 67.2948C166.166 69.8349 169.563 71.106 173.595 71.108C179.419 71.111 183.564 68.6118 186.031 63.6104L202.943 63.6192C201.148 69.5916 197.711 74.5178 192.631 78.3978C187.552 82.2032 181.316 84.104 173.924 84.1002C167.951 84.0971 162.576 82.7877 157.798 80.1719C153.096 77.4815 149.402 73.7089 146.716 68.8542C144.105 63.9995 142.802 58.3988 142.805 52.0522C142.808 45.6308 144.118 39.9942 146.734 35.1422C149.349 30.2902 153.01 26.5588 157.715 23.9478C162.421 21.3369 167.835 20.0331 173.957 20.0362C179.856 20.0393 185.119 21.3113 189.747 23.8523C194.45 26.3934 198.07 30.0166 200.606 34.7219C203.217 39.3526 204.521 44.692 204.518 50.74ZM188.28 46.2516C188.207 42.2196 186.753 39.0081 183.917 36.6173C181.081 34.1519 177.609 32.9181 173.503 32.916C169.62 32.914 166.334 34.107 163.645 36.4949C161.03 38.8082 159.423 42.0554 158.824 46.2364L188.28 46.2516ZM250.362 20.1876C257.754 20.1914 263.726 22.5465 268.279 27.2528C272.831 31.8845 275.105 38.3817 275.101 46.7443L275.082 83.1443L259.402 83.1362L259.42 48.8643C259.422 43.9363 258.192 40.165 255.729 37.5503C253.267 34.8611 249.907 33.5153 245.651 33.5132C241.321 33.5109 237.885 34.8532 235.345 37.5398C232.88 40.1519 231.646 43.9219 231.644 48.8499L231.626 83.1219L215.946 83.1139L215.978 21.0659L231.658 21.0739L231.654 28.8019C233.746 26.115 236.398 24.0257 239.609 22.534C242.895 20.9677 246.48 20.1856 250.362 20.1876ZM285.977 51.9019C285.98 45.6299 287.215 40.0679 289.681 35.2158C292.223 30.3638 295.659 26.6323 299.991 24.0212C304.323 21.4101 309.14 20.1059 314.441 20.1086C318.473 20.1107 322.318 21.0087 325.976 22.8025C329.634 24.5218 332.544 26.8379 334.708 29.751L334.723 0.295045L350.627 0.303239L350.585 83.1832L334.681 83.175L334.685 73.991C332.743 77.0514 330.016 79.514 326.506 81.3788C322.995 83.2437 318.926 84.1749 314.296 84.1725C309.07 84.1698 304.292 82.8234 299.962 80.1331C295.633 77.4429 292.2 73.6705 289.664 68.8158C287.203 63.8866 285.974 58.2486 285.977 51.9019ZM334.809 52.1511C334.811 48.3431 334.066 45.0947 332.574 42.4059C331.082 39.6425 329.067 37.5508 326.529 36.1308C323.991 34.6362 321.266 33.8881 318.354 33.8866C315.442 33.8851 312.754 34.5931 310.289 36.0105C307.824 37.4279 305.807 39.5175 304.238 42.2793C302.743 44.9666 301.995 48.1769 301.993 51.9102C301.991 55.6435 302.736 58.9292 304.228 61.7673C305.794 64.5308 307.809 66.6599 310.272 68.1545C312.81 69.6491 315.498 70.3971 318.335 70.3986C321.247 70.4001 323.973 69.6922 326.512 68.2748C329.052 66.7828 331.069 64.6932 332.564 62.0059C334.058 59.244 334.807 55.9591 334.809 52.1511Z" fill="#9D39DB" fill-opacity="0.1"/>
</svg>
