<svg width="19" height="14" viewBox="0 0 19 14" fill="none" xmlns="http://www.w3.org/2000/svg">
<path fill-rule="evenodd" clip-rule="evenodd" d="M2.64633 2.5068C2.88743 1.06024 4.139 0 5.60551 0H12.7792C14.2457 0 15.4972 1.06024 15.7383 2.5068L15.8312 3.06415H16.8632C17.1394 3.06415 17.3632 3.288 17.3632 3.56415V3.5962C17.3632 4.14848 16.9155 4.5962 16.3632 4.5962H16.0866L16.2154 5.36927C17.4885 5.89354 18.3846 7.14642 18.3846 8.60861C18.3846 9.85887 17.511 10.9051 16.3409 11.1701C16.3415 11.1846 16.3418 11.1991 16.3418 11.2137V12.2778C16.3418 12.8301 15.8941 13.2778 15.3418 13.2778H14.2777C13.7255 13.2778 13.2777 12.8301 13.2777 12.2778V11.235H5.10684V12.2778C5.10684 12.8301 4.65912 13.2778 4.10684 13.2778H3.04274C2.49045 13.2778 2.04274 12.8301 2.04274 12.2778V11.2137C2.04274 11.1991 2.04305 11.1846 2.04367 11.1701C0.873591 10.9051 0 9.85886 0 8.60861C0 7.1464 0.89619 5.89351 2.16926 5.36924L2.2981 4.5962H2.02138C1.4691 4.5962 1.02138 4.14848 1.02138 3.5962V3.56415C1.02138 3.288 1.24524 3.06415 1.52138 3.06415H2.55344L2.64633 2.5068ZM14.2992 5.10678H4.08553L4.26621 4.3479C4.58798 2.9965 5.79545 2.04276 7.18463 2.04276H11.2001C12.5892 2.04276 13.7967 2.9965 14.1185 4.3479L14.2992 5.10678ZM14.8098 9.48412C15.656 9.48412 16.3419 9.48412 16.3419 8.17093C16.3419 7.44568 16.1666 7.29548 15.3205 7.29548C14.4744 7.29548 13.7885 7.88341 13.7885 8.60866C13.7885 9.33392 13.9637 9.48412 14.8098 9.48412ZM4.59618 8.60866C4.59618 9.33392 4.42094 9.48412 3.57482 9.48412C2.72869 9.48412 2.04276 9.48412 2.04276 8.17093C2.04276 7.44568 2.218 7.29548 3.06413 7.29548C3.91026 7.29548 4.59618 7.88341 4.59618 8.60866Z" fill="#0D7DE3"/>
</svg>
